<?xml version="1.0" encoding="utf-8"?>
<!-- Generator: Adobe Illustrator 16.0.0, SVG Export Plug-In . SVG Version: 6.00 Build 0)  -->
<!DOCTYPE svg PUBLIC "-//W3C//DTD SVG 1.1//EN" "http://www.w3.org/Graphics/SVG/1.1/DTD/svg11.dtd">
<svg version="1.1" xmlns="http://www.w3.org/2000/svg" xmlns:xlink="http://www.w3.org/1999/xlink" x="0px" y="0px" width="558px"
	 height="548px" viewBox="22.5 48.5 558 548" enable-background="new 22.5 48.5 558 548" xml:space="preserve">
<g id="Layer_2">
	<polygon fill="#EAB42D" points="542.241,268.601 423.789,381.559 451.624,542.853 305.357,465.477 158.988,540.163 
		187.042,379.383 68.746,264.248 232.351,242.256 305.61,96.413 378.669,243.601 	"/>
</g>
<g id="Layer_1" xmlns:inkscape="http://www.inkscape.org/namespaces/inkscape" xmlns:svg="http://www.w3.org/2000/svg" xmlns:rdf="http://www.w3.org/1999/02/22-rdf-syntax-ns#" xmlns:cc="http://creativecommons.org/ns#" xmlns:dc="http://purl.org/dc/elements/1.1/" xmlns:sodipodi="http://sodipodi.sourceforge.net/DTD/sodipodi-0.dtd">
	<g transform="translate(0,-952.36218)">
		<path d="M457.847,1504.303c3.415-0.29,5.94-3.218,5.643-6.539c-0.021-0.228-0.054-0.452-0.101-0.677l-34.32-162.376
			l125.929-111.874c2.519-2.261,2.676-6.08,0.352-8.53c-1.005-1.059-2.366-1.733-3.838-1.901l-169.543-18.515l-70.337-150.99
			c-1.441-3.024-5.131-4.34-8.241-2.938c-1.333,0.601-2.403,1.642-3.021,2.938l-70.337,150.99l-169.543,18.515
			c-3.404,0.389-5.84,3.388-5.44,6.699c0.173,1.431,0.866,2.755,1.955,3.732l125.928,111.874l-34.32,162.376
			c-0.66,3.271,1.531,6.443,4.895,7.086c1.442,0.275,2.938,0.044,4.221-0.653L306,1421.549l148.273,81.971
			C455.355,1504.125,456.602,1504.397,457.847,1504.303L457.847,1504.303z M448.462,1486.57l-139.423-77.104
			c-1.888-1.031-4.19-1.031-6.078,0l-139.424,77.104l32.264-152.816c0.469-2.101-0.245-4.286-1.876-5.737L75.504,1222.925
			l159.354-17.385c2.15-0.246,4.013-1.563,4.916-3.477L306,1060.026l66.227,142.037c0.902,1.914,2.766,3.231,4.915,3.477
			l159.354,17.385l-118.421,105.093c-1.632,1.451-2.347,3.636-1.877,5.737L448.462,1486.57L448.462,1486.57z"/>
	</g>
</g>
</svg>
